<mxfile host="app.diagrams.net" modified="2023-06-12T18:35:04.611Z" agent="Mozilla/5.0 (X11; Ubuntu; Linux x86_64; rv:109.0) Gecko/20100101 Firefox/113.0" etag="y2XROkMD200jI2B793BC" version="21.3.8" type="device">
  <diagram id="C5RBs43oDa-KdzZeNtuy" name="Page-1">
    <mxGraphModel dx="1434" dy="795" grid="1" gridSize="10" guides="1" tooltips="1" connect="1" arrows="1" fold="1" page="1" pageScale="1" pageWidth="827" pageHeight="1169" math="0" shadow="0">
      <root>
        <mxCell id="WIyWlLk6GJQsqaUBKTNV-0" />
        <mxCell id="WIyWlLk6GJQsqaUBKTNV-1" parent="WIyWlLk6GJQsqaUBKTNV-0" />
        <mxCell id="zkfFHV4jXpPFQw0GAbJ--0" value="ModuleManager" style="swimlane;fontStyle=1;align=center;verticalAlign=top;childLayout=stackLayout;horizontal=1;startSize=26;horizontalStack=0;resizeParent=1;resizeLast=0;collapsible=1;marginBottom=0;rounded=0;shadow=0;strokeWidth=1;" parent="WIyWlLk6GJQsqaUBKTNV-1" vertex="1">
          <mxGeometry x="40" y="200" width="340" height="238" as="geometry">
            <mxRectangle x="230" y="140" width="160" height="26" as="alternateBounds" />
          </mxGeometry>
        </mxCell>
        <mxCell id="zkfFHV4jXpPFQw0GAbJ--1" value="ModuleLoader( string modulesPath = &quot;/opt/fm/lib/modules&quot; )" style="text;align=left;verticalAlign=top;spacingLeft=4;spacingRight=4;overflow=hidden;rotatable=0;points=[[0,0.5],[1,0.5]];portConstraint=eastwest;" parent="zkfFHV4jXpPFQw0GAbJ--0" vertex="1">
          <mxGeometry y="26" width="340" height="26" as="geometry" />
        </mxCell>
        <mxCell id="zkfFHV4jXpPFQw0GAbJ--2" value="void addModule( string moduleName )" style="text;align=left;verticalAlign=top;spacingLeft=4;spacingRight=4;overflow=hidden;rotatable=0;points=[[0,0.5],[1,0.5]];portConstraint=eastwest;rounded=0;shadow=0;html=0;" parent="zkfFHV4jXpPFQw0GAbJ--0" vertex="1">
          <mxGeometry y="52" width="340" height="26" as="geometry" />
        </mxCell>
        <mxCell id="zkfFHV4jXpPFQw0GAbJ--3" value="void delModule ( string moduleName )" style="text;align=left;verticalAlign=top;spacingLeft=4;spacingRight=4;overflow=hidden;rotatable=0;points=[[0,0.5],[1,0.5]];portConstraint=eastwest;rounded=0;shadow=0;html=0;" parent="zkfFHV4jXpPFQw0GAbJ--0" vertex="1">
          <mxGeometry y="78" width="340" height="32" as="geometry" />
        </mxCell>
        <mxCell id="hM2N8tMisGqkoCQfKdSa-3" value="Module* getModule( string moduleName )" style="text;align=left;verticalAlign=top;spacingLeft=4;spacingRight=4;overflow=hidden;rotatable=0;points=[[0,0.5],[1,0.5]];portConstraint=eastwest;" parent="zkfFHV4jXpPFQw0GAbJ--0" vertex="1">
          <mxGeometry y="110" width="340" height="26" as="geometry" />
        </mxCell>
        <mxCell id="zkfFHV4jXpPFQw0GAbJ--4" value="" style="line;html=1;strokeWidth=1;align=left;verticalAlign=middle;spacingTop=-1;spacingLeft=3;spacingRight=3;rotatable=0;labelPosition=right;points=[];portConstraint=eastwest;" parent="zkfFHV4jXpPFQw0GAbJ--0" vertex="1">
          <mxGeometry y="136" width="340" height="8" as="geometry" />
        </mxCell>
        <mxCell id="zkfFHV4jXpPFQw0GAbJ--5" value="map&lt; string, Module* &gt; m_modules" style="text;align=left;verticalAlign=top;spacingLeft=4;spacingRight=4;overflow=hidden;rotatable=0;points=[[0,0.5],[1,0.5]];portConstraint=eastwest;" parent="zkfFHV4jXpPFQw0GAbJ--0" vertex="1">
          <mxGeometry y="144" width="340" height="26" as="geometry" />
        </mxCell>
        <mxCell id="hM2N8tMisGqkoCQfKdSa-2" value="ModuleLoader m_moduleLoader" style="text;align=left;verticalAlign=top;spacingLeft=4;spacingRight=4;overflow=hidden;rotatable=0;points=[[0,0.5],[1,0.5]];portConstraint=eastwest;" parent="zkfFHV4jXpPFQw0GAbJ--0" vertex="1">
          <mxGeometry y="170" width="340" height="26" as="geometry" />
        </mxCell>
        <mxCell id="zkfFHV4jXpPFQw0GAbJ--6" value="ModuleLoader" style="swimlane;fontStyle=1;align=center;verticalAlign=top;childLayout=stackLayout;horizontal=1;startSize=26;horizontalStack=0;resizeParent=1;resizeLast=0;collapsible=1;marginBottom=0;rounded=0;shadow=0;strokeWidth=1;" parent="WIyWlLk6GJQsqaUBKTNV-1" vertex="1">
          <mxGeometry x="47.5" y="30" width="325" height="130" as="geometry">
            <mxRectangle x="130" y="380" width="160" height="26" as="alternateBounds" />
          </mxGeometry>
        </mxCell>
        <mxCell id="zkfFHV4jXpPFQw0GAbJ--7" value="Module* load( string filename )" style="text;align=left;verticalAlign=top;spacingLeft=4;spacingRight=4;overflow=hidden;rotatable=0;points=[[0,0.5],[1,0.5]];portConstraint=eastwest;" parent="zkfFHV4jXpPFQw0GAbJ--6" vertex="1">
          <mxGeometry y="26" width="325" height="26" as="geometry" />
        </mxCell>
        <mxCell id="zkfFHV4jXpPFQw0GAbJ--8" value="void unload( string filename )" style="text;align=left;verticalAlign=top;spacingLeft=4;spacingRight=4;overflow=hidden;rotatable=0;points=[[0,0.5],[1,0.5]];portConstraint=eastwest;rounded=0;shadow=0;html=0;" parent="zkfFHV4jXpPFQw0GAbJ--6" vertex="1">
          <mxGeometry y="52" width="325" height="26" as="geometry" />
        </mxCell>
        <mxCell id="zkfFHV4jXpPFQw0GAbJ--9" value="" style="line;html=1;strokeWidth=1;align=left;verticalAlign=middle;spacingTop=-1;spacingLeft=3;spacingRight=3;rotatable=0;labelPosition=right;points=[];portConstraint=eastwest;" parent="zkfFHV4jXpPFQw0GAbJ--6" vertex="1">
          <mxGeometry y="78" width="325" height="8" as="geometry" />
        </mxCell>
        <mxCell id="zkfFHV4jXpPFQw0GAbJ--10" value="map&lt; string, void*&gt;Â  m_filename_handle_map" style="text;align=left;verticalAlign=top;spacingLeft=4;spacingRight=4;overflow=hidden;rotatable=0;points=[[0,0.5],[1,0.5]];portConstraint=eastwest;fontStyle=0" parent="zkfFHV4jXpPFQw0GAbJ--6" vertex="1">
          <mxGeometry y="86" width="325" height="26" as="geometry" />
        </mxCell>
        <mxCell id="zkfFHV4jXpPFQw0GAbJ--12" value="" style="endArrow=block;endSize=10;endFill=0;shadow=0;strokeWidth=1;rounded=0;edgeStyle=elbowEdgeStyle;elbow=vertical;" parent="WIyWlLk6GJQsqaUBKTNV-1" source="zkfFHV4jXpPFQw0GAbJ--6" target="zkfFHV4jXpPFQw0GAbJ--0" edge="1">
          <mxGeometry width="160" relative="1" as="geometry">
            <mxPoint x="30" y="193" as="sourcePoint" />
            <mxPoint x="30" y="193" as="targetPoint" />
          </mxGeometry>
        </mxCell>
        <mxCell id="hM2N8tMisGqkoCQfKdSa-12" value="PipelineControler" style="swimlane;fontStyle=1;align=center;verticalAlign=top;childLayout=stackLayout;horizontal=1;startSize=26;horizontalStack=0;resizeParent=1;resizeLast=0;collapsible=1;marginBottom=0;rounded=0;shadow=0;strokeWidth=1;" parent="WIyWlLk6GJQsqaUBKTNV-1" vertex="1">
          <mxGeometry x="440" y="240" width="480" height="180" as="geometry">
            <mxRectangle x="230" y="140" width="160" height="26" as="alternateBounds" />
          </mxGeometry>
        </mxCell>
        <mxCell id="hM2N8tMisGqkoCQfKdSa-13" value="PipelineArchitecture( string pipelineConfigFileName )" style="text;align=left;verticalAlign=top;spacingLeft=4;spacingRight=4;overflow=hidden;rotatable=0;points=[[0,0.5],[1,0.5]];portConstraint=eastwest;" parent="hM2N8tMisGqkoCQfKdSa-12" vertex="1">
          <mxGeometry y="26" width="480" height="26" as="geometry" />
        </mxCell>
        <mxCell id="hM2N8tMisGqkoCQfKdSa-14" value="vector&lt;string&gt; whoAreNext( string moduleName )" style="text;align=left;verticalAlign=top;spacingLeft=4;spacingRight=4;overflow=hidden;rotatable=0;points=[[0,0.5],[1,0.5]];portConstraint=eastwest;rounded=0;shadow=0;html=0;" parent="hM2N8tMisGqkoCQfKdSa-12" vertex="1">
          <mxGeometry y="52" width="480" height="26" as="geometry" />
        </mxCell>
        <mxCell id="hM2N8tMisGqkoCQfKdSa-15" value="vector&lt;string&gt; getAllModules()" style="text;align=left;verticalAlign=top;spacingLeft=4;spacingRight=4;overflow=hidden;rotatable=0;points=[[0,0.5],[1,0.5]];portConstraint=eastwest;rounded=0;shadow=0;html=0;" parent="hM2N8tMisGqkoCQfKdSa-12" vertex="1">
          <mxGeometry y="78" width="480" height="32" as="geometry" />
        </mxCell>
        <mxCell id="hM2N8tMisGqkoCQfKdSa-16" value="bool addModuleToPipelineArchitecture( string previous, string next, string moduleName )" style="text;align=left;verticalAlign=top;spacingLeft=4;spacingRight=4;overflow=hidden;rotatable=0;points=[[0,0.5],[1,0.5]];portConstraint=eastwest;" parent="hM2N8tMisGqkoCQfKdSa-12" vertex="1">
          <mxGeometry y="110" width="480" height="26" as="geometry" />
        </mxCell>
        <mxCell id="hM2N8tMisGqkoCQfKdSa-20" value="bool delModuleToPipelineArchitecture( string previous, string next, string moduleName )" style="text;align=left;verticalAlign=top;spacingLeft=4;spacingRight=4;overflow=hidden;rotatable=0;points=[[0,0.5],[1,0.5]];portConstraint=eastwest;" parent="hM2N8tMisGqkoCQfKdSa-12" vertex="1">
          <mxGeometry y="136" width="480" height="26" as="geometry" />
        </mxCell>
        <mxCell id="hM2N8tMisGqkoCQfKdSa-17" value="" style="line;html=1;strokeWidth=1;align=left;verticalAlign=middle;spacingTop=-1;spacingLeft=3;spacingRight=3;rotatable=0;labelPosition=right;points=[];portConstraint=eastwest;" parent="hM2N8tMisGqkoCQfKdSa-12" vertex="1">
          <mxGeometry y="162" width="480" height="8" as="geometry" />
        </mxCell>
        <mxCell id="hM2N8tMisGqkoCQfKdSa-21" value="Module N" style="whiteSpace=wrap;html=1;aspect=fixed;" parent="WIyWlLk6GJQsqaUBKTNV-1" vertex="1">
          <mxGeometry x="810" y="1140" width="80" height="80" as="geometry" />
        </mxCell>
        <mxCell id="hM2N8tMisGqkoCQfKdSa-22" value="Logging Server" style="whiteSpace=wrap;html=1;aspect=fixed;" parent="WIyWlLk6GJQsqaUBKTNV-1" vertex="1">
          <mxGeometry x="220" y="1050" width="80" height="80" as="geometry" />
        </mxCell>
        <mxCell id="hM2N8tMisGqkoCQfKdSa-23" value="Command Server" style="whiteSpace=wrap;html=1;aspect=fixed;" parent="WIyWlLk6GJQsqaUBKTNV-1" vertex="1">
          <mxGeometry x="220" y="1320" width="80" height="80" as="geometry" />
        </mxCell>
        <mxCell id="hM2N8tMisGqkoCQfKdSa-24" value="Error Server" style="whiteSpace=wrap;html=1;aspect=fixed;" parent="WIyWlLk6GJQsqaUBKTNV-1" vertex="1">
          <mxGeometry x="220" y="1230" width="80" height="80" as="geometry" />
        </mxCell>
        <mxCell id="hM2N8tMisGqkoCQfKdSa-25" value="Data Server" style="whiteSpace=wrap;html=1;aspect=fixed;" parent="WIyWlLk6GJQsqaUBKTNV-1" vertex="1">
          <mxGeometry x="220" y="1140" width="80" height="80" as="geometry" />
        </mxCell>
        <mxCell id="hM2N8tMisGqkoCQfKdSa-26" value="Proxy" style="rounded=0;whiteSpace=wrap;html=1;" parent="WIyWlLk6GJQsqaUBKTNV-1" vertex="1">
          <mxGeometry x="370" y="1140" width="40" height="260" as="geometry" />
        </mxCell>
        <mxCell id="hM2N8tMisGqkoCQfKdSa-27" value="..." style="whiteSpace=wrap;html=1;aspect=fixed;" parent="WIyWlLk6GJQsqaUBKTNV-1" vertex="1">
          <mxGeometry x="720" y="1140" width="80" height="80" as="geometry" />
        </mxCell>
        <mxCell id="hM2N8tMisGqkoCQfKdSa-28" value="Module 2" style="whiteSpace=wrap;html=1;aspect=fixed;" parent="WIyWlLk6GJQsqaUBKTNV-1" vertex="1">
          <mxGeometry x="630" y="1140" width="80" height="80" as="geometry" />
        </mxCell>
        <mxCell id="hM2N8tMisGqkoCQfKdSa-29" value="Module 1" style="whiteSpace=wrap;html=1;aspect=fixed;" parent="WIyWlLk6GJQsqaUBKTNV-1" vertex="1">
          <mxGeometry x="540" y="1140" width="80" height="80" as="geometry" />
        </mxCell>
        <mxCell id="hM2N8tMisGqkoCQfKdSa-30" value="PipelineManager" style="rounded=0;whiteSpace=wrap;html=1;" parent="WIyWlLk6GJQsqaUBKTNV-1" vertex="1">
          <mxGeometry x="540" y="1240" width="350" height="60" as="geometry" />
        </mxCell>
        <mxCell id="hM2N8tMisGqkoCQfKdSa-31" value="GUI" style="whiteSpace=wrap;html=1;aspect=fixed;" parent="WIyWlLk6GJQsqaUBKTNV-1" vertex="1">
          <mxGeometry x="40" y="1180" width="80" height="80" as="geometry" />
        </mxCell>
        <mxCell id="hM2N8tMisGqkoCQfKdSa-33" value="" style="endArrow=classic;startArrow=classic;html=1;rounded=0;exitX=1;exitY=0.5;exitDx=0;exitDy=0;entryX=0;entryY=0.5;entryDx=0;entryDy=0;" parent="WIyWlLk6GJQsqaUBKTNV-1" source="hM2N8tMisGqkoCQfKdSa-26" target="hM2N8tMisGqkoCQfKdSa-30" edge="1">
          <mxGeometry width="50" height="50" relative="1" as="geometry">
            <mxPoint x="440" y="1190" as="sourcePoint" />
            <mxPoint x="490" y="1140" as="targetPoint" />
          </mxGeometry>
        </mxCell>
        <mxCell id="hM2N8tMisGqkoCQfKdSa-37" value="" style="endArrow=classic;startArrow=classic;html=1;rounded=0;entryX=0;entryY=0.5;entryDx=0;entryDy=0;exitX=1;exitY=0.5;exitDx=0;exitDy=0;" parent="WIyWlLk6GJQsqaUBKTNV-1" source="hM2N8tMisGqkoCQfKdSa-24" target="hM2N8tMisGqkoCQfKdSa-26" edge="1">
          <mxGeometry width="50" height="50" relative="1" as="geometry">
            <mxPoint x="320" y="1300" as="sourcePoint" />
            <mxPoint x="376" y="1269.67" as="targetPoint" />
          </mxGeometry>
        </mxCell>
        <mxCell id="hM2N8tMisGqkoCQfKdSa-38" value="" style="endArrow=classic;startArrow=classic;html=1;rounded=0;entryX=0;entryY=0.15;entryDx=0;entryDy=0;entryPerimeter=0;exitX=1;exitY=0.5;exitDx=0;exitDy=0;" parent="WIyWlLk6GJQsqaUBKTNV-1" source="hM2N8tMisGqkoCQfKdSa-25" target="hM2N8tMisGqkoCQfKdSa-26" edge="1">
          <mxGeometry width="50" height="50" relative="1" as="geometry">
            <mxPoint x="300" y="1179" as="sourcePoint" />
            <mxPoint x="434" y="1180" as="targetPoint" />
          </mxGeometry>
        </mxCell>
        <mxCell id="hM2N8tMisGqkoCQfKdSa-39" value="" style="endArrow=classic;startArrow=classic;html=1;rounded=0;" parent="WIyWlLk6GJQsqaUBKTNV-1" source="hM2N8tMisGqkoCQfKdSa-23" edge="1">
          <mxGeometry width="50" height="50" relative="1" as="geometry">
            <mxPoint x="300" y="1359.67" as="sourcePoint" />
            <mxPoint x="370" y="1360" as="targetPoint" />
          </mxGeometry>
        </mxCell>
        <mxCell id="hM2N8tMisGqkoCQfKdSa-41" value="" style="endArrow=classic;startArrow=classic;html=1;rounded=0;entryX=-0.033;entryY=0.588;entryDx=0;entryDy=0;entryPerimeter=0;" parent="WIyWlLk6GJQsqaUBKTNV-1" source="hM2N8tMisGqkoCQfKdSa-31" target="hM2N8tMisGqkoCQfKdSa-22" edge="1">
          <mxGeometry width="50" height="50" relative="1" as="geometry">
            <mxPoint x="140" y="1190" as="sourcePoint" />
            <mxPoint x="190" y="1140" as="targetPoint" />
          </mxGeometry>
        </mxCell>
        <mxCell id="hM2N8tMisGqkoCQfKdSa-42" value="" style="endArrow=classic;startArrow=classic;html=1;rounded=0;entryX=0;entryY=0.5;entryDx=0;entryDy=0;exitX=1;exitY=0.5;exitDx=0;exitDy=0;" parent="WIyWlLk6GJQsqaUBKTNV-1" source="hM2N8tMisGqkoCQfKdSa-31" target="hM2N8tMisGqkoCQfKdSa-25" edge="1">
          <mxGeometry width="50" height="50" relative="1" as="geometry">
            <mxPoint x="140" y="1220" as="sourcePoint" />
            <mxPoint x="190" y="1170" as="targetPoint" />
          </mxGeometry>
        </mxCell>
        <mxCell id="hM2N8tMisGqkoCQfKdSa-44" value="" style="endArrow=classic;startArrow=classic;html=1;rounded=0;entryX=0;entryY=0.5;entryDx=0;entryDy=0;exitX=1.008;exitY=0.671;exitDx=0;exitDy=0;exitPerimeter=0;" parent="WIyWlLk6GJQsqaUBKTNV-1" source="hM2N8tMisGqkoCQfKdSa-31" target="hM2N8tMisGqkoCQfKdSa-24" edge="1">
          <mxGeometry width="50" height="50" relative="1" as="geometry">
            <mxPoint x="150" y="1310" as="sourcePoint" />
            <mxPoint x="200" y="1260" as="targetPoint" />
          </mxGeometry>
        </mxCell>
        <mxCell id="hM2N8tMisGqkoCQfKdSa-45" value="" style="endArrow=classic;startArrow=classic;html=1;rounded=0;entryX=0;entryY=0.5;entryDx=0;entryDy=0;exitX=1;exitY=0.896;exitDx=0;exitDy=0;exitPerimeter=0;" parent="WIyWlLk6GJQsqaUBKTNV-1" source="hM2N8tMisGqkoCQfKdSa-31" target="hM2N8tMisGqkoCQfKdSa-23" edge="1">
          <mxGeometry x="-1" y="114" width="50" height="50" relative="1" as="geometry">
            <mxPoint x="120" y="1385" as="sourcePoint" />
            <mxPoint x="170" y="1335" as="targetPoint" />
            <mxPoint x="-29" y="111" as="offset" />
          </mxGeometry>
        </mxCell>
        <mxCell id="hM2N8tMisGqkoCQfKdSa-46" value="" style="endArrow=none;dashed=1;html=1;rounded=0;" parent="WIyWlLk6GJQsqaUBKTNV-1" edge="1">
          <mxGeometry width="50" height="50" relative="1" as="geometry">
            <mxPoint x="530" y="1310" as="sourcePoint" />
            <mxPoint x="530" y="1130" as="targetPoint" />
          </mxGeometry>
        </mxCell>
        <mxCell id="hM2N8tMisGqkoCQfKdSa-47" value="" style="endArrow=none;dashed=1;html=1;rounded=0;" parent="WIyWlLk6GJQsqaUBKTNV-1" edge="1">
          <mxGeometry width="50" height="50" relative="1" as="geometry">
            <mxPoint x="530" y="1310" as="sourcePoint" />
            <mxPoint x="900" y="1310" as="targetPoint" />
          </mxGeometry>
        </mxCell>
        <mxCell id="hM2N8tMisGqkoCQfKdSa-48" value="" style="endArrow=none;dashed=1;html=1;rounded=0;" parent="WIyWlLk6GJQsqaUBKTNV-1" edge="1">
          <mxGeometry width="50" height="50" relative="1" as="geometry">
            <mxPoint x="900" y="1310" as="sourcePoint" />
            <mxPoint x="900" y="1130" as="targetPoint" />
          </mxGeometry>
        </mxCell>
        <mxCell id="hM2N8tMisGqkoCQfKdSa-49" value="" style="endArrow=none;dashed=1;html=1;rounded=0;" parent="WIyWlLk6GJQsqaUBKTNV-1" edge="1">
          <mxGeometry width="50" height="50" relative="1" as="geometry">
            <mxPoint x="530" y="1130" as="sourcePoint" />
            <mxPoint x="900" y="1130" as="targetPoint" />
          </mxGeometry>
        </mxCell>
        <mxCell id="hM2N8tMisGqkoCQfKdSa-50" value="&lt;div align=&quot;left&quot;&gt;&lt;font color=&quot;#000000&quot;&gt;JSON&lt;br&gt;&lt;/font&gt;&lt;/div&gt;&lt;div align=&quot;left&quot;&gt;&lt;font color=&quot;#000000&quot;&gt;{&lt;br&gt;&amp;nbsp;&amp;nbsp; &quot;command&quot;:&quot;update&quot;,&lt;br&gt;&amp;nbsp;&amp;nbsp; &quot;moduleName&quot;:&quot;acquisition&quot;,&lt;br&gt;&amp;nbsp;&amp;nbsp; &quot;data&quot;:{&lt;br&gt;&amp;nbsp;&amp;nbsp;&amp;nbsp;&amp;nbsp;&amp;nbsp; &quot;var1&quot;:12,&lt;br&gt;&amp;nbsp;&amp;nbsp;&amp;nbsp;&amp;nbsp;&amp;nbsp; &quot;var2&quot;:66,&lt;br&gt;&amp;nbsp;&amp;nbsp;&amp;nbsp;&amp;nbsp;&amp;nbsp; &quot;var3&quot;:&quot;coco asticot&quot;&lt;br&gt;&amp;nbsp;&amp;nbsp; }&lt;br&gt;}&lt;br&gt;&lt;/font&gt;&lt;/div&gt;" style="whiteSpace=wrap;html=1;aspect=fixed;align=left;fillColor=#d5e8d4;strokeColor=#82b366;" parent="WIyWlLk6GJQsqaUBKTNV-1" vertex="1">
          <mxGeometry x="470" y="1410" width="170" height="170" as="geometry" />
        </mxCell>
        <mxCell id="hM2N8tMisGqkoCQfKdSa-51" value="&lt;div align=&quot;left&quot;&gt;&lt;font color=&quot;#000000&quot;&gt;JSON&lt;br&gt;&lt;/font&gt;&lt;/div&gt;&lt;div align=&quot;left&quot;&gt;&lt;font color=&quot;#000000&quot;&gt;{&lt;br&gt;&amp;nbsp;&amp;nbsp; &quot;command&quot;:&quot;start_pipeline&quot;&lt;br&gt;}&lt;br&gt;&lt;/font&gt;&lt;/div&gt;" style="whiteSpace=wrap;html=1;aspect=fixed;align=left;fillColor=#d5e8d4;strokeColor=#82b366;" parent="WIyWlLk6GJQsqaUBKTNV-1" vertex="1">
          <mxGeometry x="660" y="1410" width="170" height="170" as="geometry" />
        </mxCell>
        <mxCell id="hM2N8tMisGqkoCQfKdSa-52" value="Module" style="swimlane;fontStyle=1;align=center;verticalAlign=top;childLayout=stackLayout;horizontal=1;startSize=26;horizontalStack=0;resizeParent=1;resizeParentMax=0;resizeLast=0;collapsible=1;marginBottom=0;" parent="WIyWlLk6GJQsqaUBKTNV-1" vertex="1">
          <mxGeometry x="530" y="30" width="260" height="164" as="geometry" />
        </mxCell>
        <mxCell id="hM2N8tMisGqkoCQfKdSa-53" value="virtual ~Module() = default;" style="text;strokeColor=none;fillColor=none;align=left;verticalAlign=top;spacingLeft=4;spacingRight=4;overflow=hidden;rotatable=0;points=[[0,0.5],[1,0.5]];portConstraint=eastwest;" parent="hM2N8tMisGqkoCQfKdSa-52" vertex="1">
          <mxGeometry y="26" width="260" height="26" as="geometry" />
        </mxCell>
        <mxCell id="hM2N8tMisGqkoCQfKdSa-56" value="virtual const string&amp; className() = 0;" style="text;strokeColor=none;fillColor=none;align=left;verticalAlign=top;spacingLeft=4;spacingRight=4;overflow=hidden;rotatable=0;points=[[0,0.5],[1,0.5]];portConstraint=eastwest;" parent="hM2N8tMisGqkoCQfKdSa-52" vertex="1">
          <mxGeometry y="52" width="260" height="26" as="geometry" />
        </mxCell>
        <mxCell id="hM2N8tMisGqkoCQfKdSa-57" value="virtual void init( const EventLoop&amp; ) = 0;" style="text;strokeColor=none;fillColor=none;align=left;verticalAlign=top;spacingLeft=4;spacingRight=4;overflow=hidden;rotatable=0;points=[[0,0.5],[1,0.5]];portConstraint=eastwest;" parent="hM2N8tMisGqkoCQfKdSa-52" vertex="1">
          <mxGeometry y="78" width="260" height="26" as="geometry" />
        </mxCell>
        <mxCell id="hM2N8tMisGqkoCQfKdSa-58" value="virtual void config( const Json&amp; ) = 0;" style="text;strokeColor=none;fillColor=none;align=left;verticalAlign=top;spacingLeft=4;spacingRight=4;overflow=hidden;rotatable=0;points=[[0,0.5],[1,0.5]];portConstraint=eastwest;" parent="hM2N8tMisGqkoCQfKdSa-52" vertex="1">
          <mxGeometry y="104" width="260" height="26" as="geometry" />
        </mxCell>
        <mxCell id="hM2N8tMisGqkoCQfKdSa-59" value="virtual void run( const EventArgs&amp; ) = 0;" style="text;strokeColor=none;fillColor=none;align=left;verticalAlign=top;spacingLeft=4;spacingRight=4;overflow=hidden;rotatable=0;points=[[0,0.5],[1,0.5]];portConstraint=eastwest;" parent="hM2N8tMisGqkoCQfKdSa-52" vertex="1">
          <mxGeometry y="130" width="260" height="26" as="geometry" />
        </mxCell>
        <mxCell id="hM2N8tMisGqkoCQfKdSa-54" value="" style="line;strokeWidth=1;fillColor=none;align=left;verticalAlign=middle;spacingTop=-1;spacingLeft=3;spacingRight=3;rotatable=0;labelPosition=right;points=[];portConstraint=eastwest;strokeColor=inherit;" parent="hM2N8tMisGqkoCQfKdSa-52" vertex="1">
          <mxGeometry y="156" width="260" height="8" as="geometry" />
        </mxCell>
        <mxCell id="hM2N8tMisGqkoCQfKdSa-60" value="PipelineManager" style="swimlane;fontStyle=1;align=center;verticalAlign=top;childLayout=stackLayout;horizontal=1;startSize=26;horizontalStack=0;resizeParent=1;resizeLast=0;collapsible=1;marginBottom=0;rounded=0;shadow=0;strokeWidth=1;" parent="WIyWlLk6GJQsqaUBKTNV-1" vertex="1">
          <mxGeometry x="40" y="490" width="480" height="270" as="geometry">
            <mxRectangle x="230" y="140" width="160" height="26" as="alternateBounds" />
          </mxGeometry>
        </mxCell>
        <mxCell id="hM2N8tMisGqkoCQfKdSa-62" value="void loadModules();" style="text;align=left;verticalAlign=top;spacingLeft=4;spacingRight=4;overflow=hidden;rotatable=0;points=[[0,0.5],[1,0.5]];portConstraint=eastwest;rounded=0;shadow=0;html=0;" parent="hM2N8tMisGqkoCQfKdSa-60" vertex="1">
          <mxGeometry y="26" width="480" height="26" as="geometry" />
        </mxCell>
        <mxCell id="hM2N8tMisGqkoCQfKdSa-63" value="void initModules(); // rÃ©cupÃ©rer eventLoop et pour les driver init timer or socket" style="text;align=left;verticalAlign=top;spacingLeft=4;spacingRight=4;overflow=hidden;rotatable=0;points=[[0,0.5],[1,0.5]];portConstraint=eastwest;rounded=0;shadow=0;html=0;" parent="hM2N8tMisGqkoCQfKdSa-60" vertex="1">
          <mxGeometry y="52" width="480" height="28" as="geometry" />
        </mxCell>
        <mxCell id="hM2N8tMisGqkoCQfKdSa-64" value="void configModules();" style="text;align=left;verticalAlign=top;spacingLeft=4;spacingRight=4;overflow=hidden;rotatable=0;points=[[0,0.5],[1,0.5]];portConstraint=eastwest;" parent="hM2N8tMisGqkoCQfKdSa-60" vertex="1">
          <mxGeometry y="80" width="480" height="26" as="geometry" />
        </mxCell>
        <mxCell id="hM2N8tMisGqkoCQfKdSa-65" value="void startPipeline();" style="text;align=left;verticalAlign=top;spacingLeft=4;spacingRight=4;overflow=hidden;rotatable=0;points=[[0,0.5],[1,0.5]];portConstraint=eastwest;" parent="hM2N8tMisGqkoCQfKdSa-60" vertex="1">
          <mxGeometry y="106" width="480" height="26" as="geometry" />
        </mxCell>
        <mxCell id="hM2N8tMisGqkoCQfKdSa-66" value="" style="line;html=1;strokeWidth=1;align=left;verticalAlign=middle;spacingTop=-1;spacingLeft=3;spacingRight=3;rotatable=0;labelPosition=right;points=[];portConstraint=eastwest;" parent="hM2N8tMisGqkoCQfKdSa-60" vertex="1">
          <mxGeometry y="132" width="480" height="8" as="geometry" />
        </mxCell>
        <mxCell id="hM2N8tMisGqkoCQfKdSa-68" value="PipelineArchitecture m_pipelineArchitecture;" style="text;align=left;verticalAlign=top;spacingLeft=4;spacingRight=4;overflow=hidden;rotatable=0;points=[[0,0.5],[1,0.5]];portConstraint=eastwest;rounded=0;shadow=0;html=0;" parent="hM2N8tMisGqkoCQfKdSa-60" vertex="1">
          <mxGeometry y="140" width="480" height="26" as="geometry" />
        </mxCell>
        <mxCell id="hM2N8tMisGqkoCQfKdSa-69" value="ModuleManager m_moduleManager;" style="text;align=left;verticalAlign=top;spacingLeft=4;spacingRight=4;overflow=hidden;rotatable=0;points=[[0,0.5],[1,0.5]];portConstraint=eastwest;rounded=0;shadow=0;html=0;" parent="hM2N8tMisGqkoCQfKdSa-60" vertex="1">
          <mxGeometry y="166" width="480" height="26" as="geometry" />
        </mxCell>
        <mxCell id="hM2N8tMisGqkoCQfKdSa-67" value="EventLoop m_eventLoop;" style="text;align=left;verticalAlign=top;spacingLeft=4;spacingRight=4;overflow=hidden;rotatable=0;points=[[0,0.5],[1,0.5]];portConstraint=eastwest;rounded=0;shadow=0;html=0;" parent="hM2N8tMisGqkoCQfKdSa-60" vertex="1">
          <mxGeometry y="192" width="480" height="26" as="geometry" />
        </mxCell>
        <mxCell id="hM2N8tMisGqkoCQfKdSa-70" value="ThreadPool m_threadPool;" style="text;align=left;verticalAlign=top;spacingLeft=4;spacingRight=4;overflow=hidden;rotatable=0;points=[[0,0.5],[1,0.5]];portConstraint=eastwest;rounded=0;shadow=0;html=0;" parent="hM2N8tMisGqkoCQfKdSa-60" vertex="1">
          <mxGeometry y="218" width="480" height="26" as="geometry" />
        </mxCell>
        <mxCell id="hM2N8tMisGqkoCQfKdSa-72" value="&lt;div align=&quot;left&quot;&gt;&lt;font color=&quot;#000000&quot;&gt;startPipeline(){&lt;/font&gt;&lt;/div&gt;&lt;div align=&quot;left&quot;&gt;&lt;font color=&quot;#000000&quot;&gt;&lt;span style=&quot;&quot;&gt;&#x9;&lt;/span&gt;while ( true ){&lt;/font&gt;&lt;/div&gt;&lt;blockquote&gt;&lt;div align=&quot;left&quot;&gt;&lt;font color=&quot;#000000&quot;&gt;&lt;span style=&quot;&quot;&gt;&#x9;&lt;/span&gt;&lt;span style=&quot;&quot;&gt;&#x9;pair&amp;lt;string, EventArgs&amp;gt; owner_args = m_eventLoop.&lt;/span&gt;waitEvent();&lt;br&gt;&lt;span style=&quot;&quot;&gt;&#x9;&lt;/span&gt;&lt;span style=&quot;&quot;&gt;&#x9;&lt;/span&gt;vector&amp;lt;string&amp;gt; modules = m_pipelineArchi.whoAreNext(&lt;span style=&quot;&quot;&gt;owner_args&lt;/span&gt;.first);&lt;br&gt;&lt;span style=&quot;&quot;&gt;&#x9;&lt;/span&gt;&lt;span style=&quot;&quot;&gt;&#x9;&lt;/span&gt;for( auto module : modules)&lt;br&gt;&lt;span style=&quot;&quot;&gt;&#x9;&lt;/span&gt;&lt;span style=&quot;&quot;&gt;&#x9;&lt;/span&gt;{&lt;/font&gt;&lt;/div&gt;&lt;blockquote&gt;&lt;div align=&quot;left&quot;&gt;&lt;font color=&quot;#000000&quot;&gt;&lt;span style=&quot;&quot;&gt;&lt;span style=&quot;&quot;&gt;&#x9;&lt;/span&gt;&lt;span style=&quot;&quot;&gt;&#x9;&lt;/span&gt;&lt;span style=&quot;&quot;&gt;&#x9;&lt;/span&gt;&lt;span style=&quot;&quot;&gt;&#x9;&lt;/span&gt;module* mod = m_moduleManager.getModule(module);&lt;br&gt;&lt;/span&gt;&lt;/font&gt;&lt;/div&gt;&lt;div align=&quot;left&quot;&gt;&lt;font color=&quot;#000000&quot;&gt;&lt;span style=&quot;&quot;&gt;&lt;span style=&quot;&quot;&gt;&#x9;&lt;/span&gt;&lt;span style=&quot;&quot;&gt;&#x9;&lt;/span&gt;&lt;span style=&quot;&quot;&gt;&#x9;&lt;/span&gt;&lt;span style=&quot;&quot;&gt;&#x9;&lt;/span&gt;m_threadpool.addTask( [&amp;amp;mod, &amp;amp;&lt;/span&gt;&lt;span style=&quot;&quot;&gt;owner_args.second](){&lt;/span&gt;&lt;/font&gt;&lt;/div&gt;&lt;div align=&quot;left&quot;&gt;&lt;font color=&quot;#000000&quot;&gt;&lt;span style=&quot;white-space: pre;&quot;&gt;&#x9;&lt;/span&gt;&lt;span style=&quot;&quot;&gt;&lt;span style=&quot;&quot;&gt;&#x9;&lt;/span&gt;&lt;span style=&quot;&quot;&gt;&#x9;&lt;/span&gt;&lt;span style=&quot;&quot;&gt;&#x9;&lt;/span&gt;mod.run(&lt;/span&gt;&lt;span style=&quot;&quot;&gt;&lt;/span&gt;&lt;span style=&quot;&quot;&gt;owner_args.second);&lt;/span&gt;&lt;/font&gt;&lt;/div&gt;&lt;/blockquote&gt;&lt;div align=&quot;left&quot;&gt;&lt;font color=&quot;#000000&quot;&gt;&lt;span style=&quot;&quot;&gt;&lt;span style=&quot;&quot;&gt;&#x9;&lt;/span&gt;&lt;span style=&quot;white-space: pre;&quot;&gt;&#x9;&lt;/span&gt;&lt;span style=&quot;white-space: pre;&quot;&gt;&#x9;&lt;/span&gt;}&lt;br&gt;&lt;/span&gt;&lt;/font&gt;&lt;/div&gt;&lt;/blockquote&gt;&lt;div align=&quot;left&quot;&gt;&lt;font color=&quot;#000000&quot;&gt;&lt;span style=&quot;&quot;&gt;&lt;span style=&quot;&quot;&gt;&#x9;&lt;/span&gt;&lt;span style=&quot;&quot;&gt;&#x9;&lt;/span&gt;&lt;span style=&quot;&quot;&gt;&#x9;&lt;/span&gt;&amp;nbsp;&amp;nbsp;&amp;nbsp;&lt;span style=&quot;white-space: pre;&quot;&gt;&#x9;&lt;/span&gt;&amp;nbsp; &amp;nbsp; }&#x9;&lt;/span&gt;&lt;span style=&quot;&quot;&gt;&#x9;&lt;/span&gt;&lt;br&gt;&lt;/font&gt;&lt;/div&gt;&lt;div align=&quot;left&quot;&gt;&lt;font color=&quot;#000000&quot;&gt;&lt;span style=&quot;&quot;&gt;&#x9;&lt;/span&gt;}&lt;br&gt;&lt;/font&gt;&lt;/div&gt;&lt;div align=&quot;left&quot;&gt;&lt;font color=&quot;#000000&quot;&gt;}&lt;br&gt;&lt;/font&gt;&lt;/div&gt;" style="whiteSpace=wrap;html=1;aspect=fixed;fillColor=#fff2cc;strokeColor=#d6b656;" parent="WIyWlLk6GJQsqaUBKTNV-1" vertex="1">
          <mxGeometry x="530" y="430" width="470" height="470" as="geometry" />
        </mxCell>
        <mxCell id="hM2N8tMisGqkoCQfKdSa-73" value="" style="endArrow=block;endSize=10;endFill=0;shadow=0;strokeWidth=1;rounded=0;edgeStyle=elbowEdgeStyle;elbow=vertical;entryX=0.312;entryY=0.004;entryDx=0;entryDy=0;entryPerimeter=0;" parent="WIyWlLk6GJQsqaUBKTNV-1" target="hM2N8tMisGqkoCQfKdSa-60" edge="1">
          <mxGeometry x="1" y="-243" width="160" relative="1" as="geometry">
            <mxPoint x="190" y="438" as="sourcePoint" />
            <mxPoint x="190" y="478" as="targetPoint" />
            <mxPoint x="203" y="240" as="offset" />
          </mxGeometry>
        </mxCell>
        <mxCell id="hM2N8tMisGqkoCQfKdSa-74" value="" style="endArrow=block;endSize=10;endFill=0;shadow=0;strokeWidth=1;rounded=0;edgeStyle=elbowEdgeStyle;elbow=vertical;entryX=0.5;entryY=0;entryDx=0;entryDy=0;" parent="WIyWlLk6GJQsqaUBKTNV-1" target="hM2N8tMisGqkoCQfKdSa-60" edge="1">
          <mxGeometry x="1" y="318" width="160" relative="1" as="geometry">
            <mxPoint x="490" y="420" as="sourcePoint" />
            <mxPoint x="230" y="220" as="targetPoint" />
            <mxPoint x="-98" y="230" as="offset" />
          </mxGeometry>
        </mxCell>
        <mxCell id="hM2N8tMisGqkoCQfKdSa-75" value="System" style="swimlane;fontStyle=1;align=center;verticalAlign=top;childLayout=stackLayout;horizontal=1;startSize=26;horizontalStack=0;resizeParent=1;resizeParentMax=0;resizeLast=0;collapsible=1;marginBottom=0;" parent="WIyWlLk6GJQsqaUBKTNV-1" vertex="1">
          <mxGeometry x="40" y="830" width="220" height="86" as="geometry" />
        </mxCell>
        <mxCell id="hM2N8tMisGqkoCQfKdSa-77" value="" style="line;strokeWidth=1;fillColor=none;align=left;verticalAlign=middle;spacingTop=-1;spacingLeft=3;spacingRight=3;rotatable=0;labelPosition=right;points=[];portConstraint=eastwest;strokeColor=inherit;" parent="hM2N8tMisGqkoCQfKdSa-75" vertex="1">
          <mxGeometry y="26" width="220" height="8" as="geometry" />
        </mxCell>
        <mxCell id="hM2N8tMisGqkoCQfKdSa-81" value="ThreadPool" style="text;strokeColor=none;fillColor=none;align=left;verticalAlign=top;spacingLeft=4;spacingRight=4;overflow=hidden;rotatable=0;points=[[0,0.5],[1,0.5]];portConstraint=eastwest;" parent="hM2N8tMisGqkoCQfKdSa-75" vertex="1">
          <mxGeometry y="34" width="220" height="26" as="geometry" />
        </mxCell>
        <mxCell id="hM2N8tMisGqkoCQfKdSa-83" value="EventLoop" style="text;strokeColor=none;fillColor=none;align=left;verticalAlign=top;spacingLeft=4;spacingRight=4;overflow=hidden;rotatable=0;points=[[0,0.5],[1,0.5]];portConstraint=eastwest;" parent="hM2N8tMisGqkoCQfKdSa-75" vertex="1">
          <mxGeometry y="60" width="220" height="26" as="geometry" />
        </mxCell>
        <mxCell id="hM2N8tMisGqkoCQfKdSa-80" value="" style="endArrow=block;endSize=10;endFill=0;shadow=0;strokeWidth=1;rounded=0;edgeStyle=elbowEdgeStyle;elbow=vertical;entryX=0.25;entryY=1;entryDx=0;entryDy=0;exitX=0.545;exitY=-0.012;exitDx=0;exitDy=0;exitPerimeter=0;" parent="WIyWlLk6GJQsqaUBKTNV-1" source="hM2N8tMisGqkoCQfKdSa-75" target="hM2N8tMisGqkoCQfKdSa-60" edge="1">
          <mxGeometry x="1" y="-243" width="160" relative="1" as="geometry">
            <mxPoint x="160" y="820" as="sourcePoint" />
            <mxPoint x="270" y="820" as="targetPoint" />
            <mxPoint x="203" y="240" as="offset" />
          </mxGeometry>
        </mxCell>
        <mxCell id="RR0TsUeHsoyGmUSjzT9o-0" value="Log" style="swimlane;fontStyle=1;align=center;verticalAlign=top;childLayout=stackLayout;horizontal=1;startSize=26;horizontalStack=0;resizeParent=1;resizeParentMax=0;resizeLast=0;collapsible=1;marginBottom=0;" vertex="1" parent="WIyWlLk6GJQsqaUBKTNV-1">
          <mxGeometry x="270" y="830" width="220" height="60" as="geometry" />
        </mxCell>
        <mxCell id="RR0TsUeHsoyGmUSjzT9o-1" value="" style="line;strokeWidth=1;fillColor=none;align=left;verticalAlign=middle;spacingTop=-1;spacingLeft=3;spacingRight=3;rotatable=0;labelPosition=right;points=[];portConstraint=eastwest;strokeColor=inherit;" vertex="1" parent="RR0TsUeHsoyGmUSjzT9o-0">
          <mxGeometry y="26" width="220" height="8" as="geometry" />
        </mxCell>
        <mxCell id="RR0TsUeHsoyGmUSjzT9o-4" value="Log" style="text;strokeColor=none;fillColor=none;align=left;verticalAlign=top;spacingLeft=4;spacingRight=4;overflow=hidden;rotatable=0;points=[[0,0.5],[1,0.5]];portConstraint=eastwest;" vertex="1" parent="RR0TsUeHsoyGmUSjzT9o-0">
          <mxGeometry y="34" width="220" height="26" as="geometry" />
        </mxCell>
        <mxCell id="RR0TsUeHsoyGmUSjzT9o-5" value="" style="endArrow=block;endSize=10;endFill=0;shadow=0;strokeWidth=1;rounded=0;edgeStyle=elbowEdgeStyle;elbow=vertical;exitX=0.368;exitY=-0.017;exitDx=0;exitDy=0;exitPerimeter=0;" edge="1" parent="WIyWlLk6GJQsqaUBKTNV-1" source="RR0TsUeHsoyGmUSjzT9o-0">
          <mxGeometry x="1" y="-243" width="160" relative="1" as="geometry">
            <mxPoint x="373" y="760" as="sourcePoint" />
            <mxPoint x="350" y="760" as="targetPoint" />
            <mxPoint x="203" y="240" as="offset" />
          </mxGeometry>
        </mxCell>
      </root>
    </mxGraphModel>
  </diagram>
</mxfile>
